# xmcd
#
# Track frame offsets:
#	150
#	18148
#	75119
#	102576
#	115803
#	135366
#	163317
#	186486
#	207573
#
# Disc length: 3320 seconds
#
# Revision: 0
# Processed by: cddbd v1.4b41PL1 Copyright (c) Steve Scherf et al.
# Submitted via: audiograbber 1.80
#
DISCID=720cf609
DTITLE=Marc Cohn - Live In Stuttgart 1998 - Disc 2
DYEAR=1900
DGENRE=
TTITLE0=Miles away
TTITLE1=Dig down deep
TTITLE2=Silver Thunderbird
TTITLE3=Mama's in the moon
TTITLE4=Valley of the Kings
TTITLE5=Paper walls
TTITLE6=Walk through the world
TTITLE7=True companion
TTITLE8=Turn on your radio
EXTD=
EXTT0=
EXTT1=
EXTT2=
EXTT3=
EXTT4=
EXTT5=
EXTT6=
EXTT7=
EXTT8=
PLAYORDER=
